<?xml version="1.0" encoding="UTF-8" standalone="no"?>
<!-- Created with Inkscape (http://www.inkscape.org/) -->

<svg
   xmlns:dc="http://purl.org/dc/elements/1.1/"
   xmlns:cc="http://creativecommons.org/ns#"
   xmlns:rdf="http://www.w3.org/1999/02/22-rdf-syntax-ns#"
   xmlns:svg="http://www.w3.org/2000/svg"
   xmlns="http://www.w3.org/2000/svg"
   xmlns:sodipodi="http://sodipodi.sourceforge.net/DTD/sodipodi-0.dtd"
   xmlns:inkscape="http://www.inkscape.org/namespaces/inkscape"
   width="33.602081mm"
   height="10.847917mm"
   viewBox="0 0 33.602081 10.847917"
   version="1.1"
   id="svg1791"
   sodipodi:docname="crowdnewsroom-logo.svg"
   inkscape:export-filename="/home/ana/Repos/j++/cnr-html-mockups/assets/img/crowdnewsroom-logo.png"
   inkscape:export-xdpi="234.33072"
   inkscape:export-ydpi="234.33072"
   inkscape:version="0.92.3 (2405546, 2018-03-11)">
  <defs
     id="defs1785">
    <clipPath
       id="clip1">
      <rect
         style="fill:#ffffff"
         y="0"
         x="0"
         width="127"
         height="41"
         transform="translate(31,17)"
         id="rect766" />
    </clipPath>
  </defs>
  <sodipodi:namedview
     id="base"
     pagecolor="#ffffff"
     bordercolor="#666666"
     borderopacity="1.0"
     inkscape:pageopacity="0.0"
     inkscape:pageshadow="2"
     inkscape:zoom="3.4669291"
     inkscape:cx="92.857143"
     inkscape:cy="0"
     inkscape:document-units="mm"
     inkscape:current-layer="layer1"
     showgrid="false"
     fit-margin-top="0"
     fit-margin-left="0"
     fit-margin-right="0"
     fit-margin-bottom="0"
     inkscape:window-width="1920"
     inkscape:window-height="1040"
     inkscape:window-x="0"
     inkscape:window-y="20"
     inkscape:window-maximized="1" />
  <metadata
     id="metadata1788">
    <rdf:RDF>
      <cc:Work
         rdf:about="">
        <dc:format>image/svg+xml</dc:format>
        <dc:type
           rdf:resource="http://purl.org/dc/dcmitype/StillImage" />
        <dc:title></dc:title>
      </cc:Work>
    </rdf:RDF>
  </metadata>
  <g
     inkscape:label="Layer 1"
     inkscape:groupmode="layer"
     id="layer1"
     transform="translate(109.02724,-13.385566)">
    <path
       style="fill:#ffffff;stroke-width:0.99999994"
       d="M 0 0 L 0 26.517578 L 11.306641 26.517578 L 29.027344 40.953125 L 29.027344 26.517578 L 38.728516 26.517578 L 38.728516 0 L 0 0 z M 29.027344 40.953125 L 29.027344 41 L 29.085938 41 L 29.027344 40.953125 z M 48.529297 0.072265625 C 46.589197 0.072265625 44.837891 1.4919584 44.837891 3.6933594 C 44.837891 5.8946583 46.589889 7.3144531 48.587891 7.3144531 C 49.23939 7.3144531 49.948376 7.1825566 50.455078 6.921875 L 50.005859 5.7636719 C 49.687359 6.0243837 49.225584 6.0820312 48.646484 6.0820312 C 47.517184 6.0820312 46.34375 5.2436533 46.34375 3.7519531 C 46.34375 2.3326498 47.313061 1.3613281 48.601562 1.3613281 C 49.122763 1.3613281 49.702984 1.4202374 50.021484 1.6230469 L 50.470703 0.46289062 C 49.891604 0.20217881 49.238699 0.072265625 48.529297 0.072265625 z M 80.859375 0.072265625 C 78.919374 0.072265625 77.167969 1.4919584 77.167969 3.6933594 C 77.167969 5.8946583 78.919967 7.3144531 80.917969 7.3144531 C 81.568966 7.3144531 82.2772 7.1825566 82.783203 6.921875 L 82.335938 5.7636719 C 81.944938 5.9518546 81.424966 6.0820312 80.917969 6.0820312 C 79.831967 6.0820312 78.673828 5.2436533 78.673828 3.7519531 C 78.673828 2.3326498 79.643638 1.3613281 80.931641 1.3613281 C 81.452641 1.3613281 82.031611 1.4202374 82.349609 1.6230469 L 82.798828 0.46289062 C 82.219831 0.20217881 81.568373 0.072265625 80.859375 0.072265625 z M 54.884766 0.13085938 C 52.814465 0.13085938 51.136719 1.6230511 51.136719 3.7519531 C 51.136719 5.8808514 52.756563 7.3710938 54.884766 7.3710938 C 57.013063 7.298678 58.634766 5.8229528 58.634766 3.7519531 C 58.634766 1.6230511 57.013063 0.13085938 54.884766 0.13085938 z M 59.664062 0.25976562 L 59.664062 7.2421875 L 61.082031 7.2421875 L 61.082031 5.1132812 L 63.152344 7.2421875 L 64.904297 7.2421875 L 64.904297 7.1835938 L 62.703125 5.0546875 C 63.933724 4.7939757 64.773438 3.8957536 64.773438 2.7226562 C 64.773438 1.3613536 63.746635 0.25976562 62.052734 0.25976562 L 59.664062 0.25976562 z M 65.931641 0.25976562 L 65.931641 7.2421875 L 67.351562 7.2421875 L 67.351562 5.1132812 L 69.421875 7.2421875 L 71.173828 7.2421875 L 71.173828 7.1835938 L 68.972656 5.0546875 C 70.203157 4.7939757 71.042969 3.8957536 71.042969 2.7226562 C 71.042969 1.3613536 70.014312 0.25976562 68.320312 0.25976562 L 65.931641 0.25976562 z M 83.523438 0.25976562 L 83.523438 1.4921875 L 85.390625 1.4921875 L 85.390625 7.2421875 L 86.808594 7.2421875 L 86.824219 1.4921875 L 88.691406 1.4921875 L 88.691406 0.25976562 L 83.523438 0.25976562 z M 89.734375 0.25976562 L 89.734375 4.7207031 L 91.152344 4.7207031 L 91.152344 0.25976562 L 89.734375 0.25976562 z M 92.050781 0.25976562 L 94.830078 7.2421875 L 95.988281 7.2421875 L 98.839844 0.25976562 L 97.349609 0.25976562 L 95.482422 5.1699219 L 93.541016 0.25976562 L 92.050781 0.25976562 z M 72.201172 0.27539062 L 72.216797 7.1835938 L 76.544922 7.1835938 L 76.544922 5.953125 L 73.634766 5.953125 L 73.634766 4.5332031 L 76.023438 4.5332031 L 76.023438 3.3027344 L 73.634766 3.3027344 L 73.634766 1.4335938 L 76.472656 1.4335938 L 76.472656 0.27539062 L 72.201172 0.27539062 z M 54.957031 1.3613281 C 56.187634 1.3613281 57.216797 2.3326498 57.216797 3.7519531 C 57.216797 5.1712527 56.187634 6.140625 54.957031 6.140625 C 53.668534 6.140625 52.699219 5.1712527 52.699219 3.7519531 C 52.699219 2.3326498 53.726432 1.3613281 54.957031 1.3613281 z M 61.095703 1.4921875 L 62.007812 1.4921875 C 62.789612 1.4921875 63.296875 1.94125 63.296875 2.78125 C 63.282513 3.5632531 62.776637 4.0117188 61.806641 4.0117188 L 61.095703 4.0117188 L 61.095703 1.4921875 z M 67.365234 1.4921875 L 68.277344 1.4921875 C 69.058742 1.4921875 69.566406 1.94125 69.566406 2.78125 C 69.624422 3.5632531 69.044318 4.0117188 68.074219 4.0117188 L 67.365234 4.0117188 L 67.365234 1.4921875 z M 3.3007812 3.2304688 L 35.5 3.2304688 L 35.5 23.273438 L 25.798828 23.273438 L 25.798828 34.134766 L 12.480469 23.273438 L 3.3007812 23.273438 L 3.3007812 3.2304688 z M 17.763672 5.3007812 L 17.763672 16.423828 L 21.326172 16.423828 L 21.326172 5.3007812 L 17.763672 5.3007812 z M 89.660156 5.7636719 L 89.660156 7.1835938 L 91.080078 7.1835938 L 91.080078 5.7636719 L 89.660156 5.7636719 z M 51.583984 11.513672 C 47.573683 11.513672 44.085938 14.425155 44.085938 18.972656 C 44.085938 23.505655 47.646643 26.285156 51.714844 26.285156 C 53.133743 26.285156 54.437505 26.08321 55.595703 25.503906 L 54.683594 23.171875 C 53.843896 23.562996 52.873737 23.751953 51.773438 23.751953 C 49.384538 23.751953 47.052734 22.072091 47.052734 18.900391 C 47.052734 16.04729 48.992483 14.048828 51.583984 14.048828 C 52.684382 14.048828 53.770935 14.235851 54.552734 14.626953 L 55.464844 12.294922 C 54.306642 11.701117 53.002883 11.513672 51.583984 11.513672 z M 80.554688 11.513672 C 76.283689 11.513672 72.982929 14.555724 72.998047 18.828125 C 72.998047 23.172824 76.283689 26.140625 80.554688 26.140625 C 84.82569 26.140625 88.185547 23.100427 88.185547 18.828125 C 88.185547 14.555724 84.82569 11.513672 80.554688 11.513672 z M 90.574219 11.759766 L 95.294922 25.923828 L 97.623047 25.923828 L 100.85352 16.292969 L 104.08203 25.923828 L 106.39844 25.923828 L 111.11719 11.759766 L 108.07617 11.759766 L 105.24023 21.203125 L 102.01172 11.759766 L 99.679688 11.759766 L 96.451172 21.203125 L 93.613281 11.759766 L 90.574219 11.759766 z M 114.62109 11.759766 L 114.62109 25.923828 L 119.3418 25.923828 C 123.9318 25.923828 127.0293 23.346194 127.0293 18.871094 C 127.0293 14.352593 123.9318 11.759766 119.3418 11.759766 L 114.62109 11.759766 z M 59.591797 11.773438 L 59.591797 25.9375 L 62.501953 25.9375 L 62.501953 21.666016 L 66.642578 25.9375 L 70.333984 25.9375 L 65.802734 21.535156 C 68.394235 20.955857 70.0146 19.20336 70.058594 16.755859 C 70.058594 13.975159 67.989101 11.773438 64.5 11.773438 L 59.591797 11.773438 z M 80.554688 13.960938 C 83.13169 13.960938 85.201172 15.973901 85.201172 18.8125 C 85.201172 21.7235 83.146687 23.664062 80.554688 23.664062 C 77.963689 23.664062 75.893085 21.665597 75.908203 18.8125 C 75.908203 15.9015 77.977688 13.960938 80.554688 13.960938 z M 62.443359 14.148438 L 64.310547 14.148438 C 65.932047 14.148438 67.033203 15.062187 67.033203 16.742188 C 67.033203 18.494588 65.931592 19.333984 63.933594 19.333984 L 62.443359 19.333984 L 62.443359 14.148438 z M 117.53125 14.222656 L 119.39844 14.222656 C 122.04744 14.222656 124.11914 15.771062 124.11914 18.884766 C 124.11914 21.926163 122.04744 23.476562 119.39844 23.476562 L 117.53125 23.476562 L 117.53125 14.222656 z M 17.779297 19.015625 L 17.779297 22.636719 L 21.339844 22.636719 L 21.339844 19.015625 L 17.779297 19.015625 z M 80.685547 30.978516 C 79.136549 30.978516 78.224609 31.817828 78.224609 33.048828 C 78.224609 34.07703 78.672738 34.729689 80.177734 35.337891 C 81.148737 35.71449 81.539062 36.047654 81.539062 36.626953 C 81.539062 37.148263 81.090593 37.466797 80.308594 37.466797 C 79.714592 37.466797 79.077641 37.263927 78.556641 36.945312 L 78.107422 38.234375 C 78.686423 38.625477 79.585188 38.884766 80.367188 38.884766 C 82.176187 38.884766 83.146484 37.973889 83.146484 36.554688 C 83.146484 35.381586 82.508436 34.6711 81.148438 34.091797 C 80.120451 33.642899 79.859375 33.382594 79.859375 32.933594 C 79.859375 32.542605 80.178669 32.28125 80.888672 32.28125 C 81.395669 32.28125 81.915641 32.469757 82.306641 32.730469 L 82.755859 31.5 C 82.175861 31.166895 81.395546 30.978516 80.685547 30.978516 z M 99.419922 30.978516 C 97.160921 30.978516 95.351562 32.586269 95.351562 34.917969 C 95.351562 37.235171 97.160921 38.857422 99.419922 38.857422 C 101.67792 38.857422 103.48828 37.249669 103.48828 34.917969 C 103.48828 32.600771 101.67792 30.978516 99.419922 30.978516 z M 110.61133 30.978516 C 108.28033 30.978516 106.46995 32.586269 106.54297 34.917969 C 106.54297 37.235171 108.35333 38.857422 110.61133 38.857422 C 112.87033 38.857422 114.67969 37.249669 114.67969 34.917969 C 114.67969 32.600771 112.87033 30.978516 110.61133 30.978516 z M 73.503906 31.09375 L 71.955078 36.207031 L 70.21875 31.109375 L 68.929688 31.109375 L 67.177734 36.220703 L 65.628906 31.109375 L 64.005859 31.109375 L 66.525391 38.740234 L 67.814453 38.740234 L 69.552734 33.570312 L 71.304688 38.740234 L 72.591797 38.740234 L 75.126953 31.09375 L 73.503906 31.09375 z M 118.55859 31.09375 L 117.98047 38.726562 L 119.60156 38.726562 L 119.91992 33.816406 L 121.91797 36.800781 L 121.91797 36.785156 L 122.69922 36.785156 L 124.69727 33.816406 L 125.01562 38.726562 L 126.63867 38.726562 L 126.05859 31.09375 L 124.90039 31.09375 L 122.30859 34.902344 L 119.71875 31.09375 L 118.55859 31.09375 z M 45.763672 31.109375 L 45.779297 38.740234 L 47.328125 38.740234 L 47.328125 33.960938 L 50.947266 38.740234 L 52.105469 38.740234 L 52.105469 31.109375 L 50.542969 31.109375 L 50.542969 35.886719 L 46.923828 31.109375 L 45.763672 31.109375 z M 56.173828 31.109375 L 56.173828 38.798828 L 61.023438 38.798828 L 61.023438 37.4375 L 57.794922 37.4375 L 57.794922 35.830078 L 60.445312 35.830078 L 60.445312 34.541016 L 57.794922 34.541016 L 57.794922 32.470703 L 60.894531 32.470703 L 60.894531 31.109375 L 56.173828 31.109375 z M 86.5625 31.109375 L 86.5625 38.798828 L 88.185547 38.798828 L 88.185547 36.466797 L 90.443359 38.798828 L 92.441406 38.798828 L 89.980469 36.408203 C 91.341469 36.075102 92.181906 35.104711 92.253906 33.757812 C 92.253906 32.266112 91.07989 31.109375 89.212891 31.109375 L 86.5625 31.109375 z M 99.419922 32.324219 C 100.83792 32.324219 101.93945 33.36837 101.93945 34.917969 C 101.93945 36.48207 100.78092 37.509766 99.419922 37.509766 C 98.072921 37.509766 96.900391 36.46767 96.900391 34.917969 C 96.900391 33.353868 98.058922 32.324219 99.419922 32.324219 z M 110.61133 32.324219 C 112.03033 32.324219 113.13086 33.36837 113.13086 34.917969 C 113.13086 36.48207 111.97233 37.509766 110.61133 37.509766 C 109.19233 37.509766 108.0918 36.46767 108.0918 34.917969 C 108.0918 33.353868 109.25033 32.324219 110.61133 32.324219 z M 88.185547 32.396484 L 89.212891 32.396484 C 90.051889 32.396484 90.632812 32.904006 90.632812 33.816406 C 90.632812 34.786808 90.051169 35.236328 88.951172 35.236328 L 88.185547 35.236328 L 88.185547 32.396484 z "
       transform="matrix(0.26458333,0,0,0.26458333,-109.02724,13.385566)"
       id="path76"
       inkscape:export-xdpi="234.33072"
       inkscape:export-ydpi="234.33072" />
  </g>
</svg>
